<svg xmlns="http://www.w3.org/2000/svg" width="1440" height="900" viewBox="0 0 1440 900" role="img" aria-labelledby="title desc">
  <title id="title">X5 Crop macOS review workspace mockup</title>
  <desc id="desc">A light macOS-style crop review UI guided by Apple Human Interface Guidelines.</desc>
  <defs>
    <filter id="shadow" x="-20%" y="-20%" width="140%" height="140%">
      <feDropShadow dx="0" dy="18" stdDeviation="24" flood-color="#1f2937" flood-opacity="0.16"/>
    </filter>
    <filter id="controlShadow" x="-10%" y="-10%" width="120%" height="140%">
      <feDropShadow dx="0" dy="1" stdDeviation="1.2" flood-color="#1f2937" flood-opacity="0.12"/>
    </filter>
    <filter id="cardShadow" x="-8%" y="-8%" width="116%" height="128%">
      <feDropShadow dx="0" dy="4" stdDeviation="8" flood-color="#1f2937" flood-opacity="0.08"/>
    </filter>
    <linearGradient id="scan" x1="0" x2="1" y1="0" y2="0">
      <stop offset="0" stop-color="#d6dde7"/>
      <stop offset="0.11" stop-color="#94a3b8"/>
      <stop offset="0.23" stop-color="#edf1f6"/>
      <stop offset="0.38" stop-color="#9aa7b8"/>
      <stop offset="0.52" stop-color="#f4f6f9"/>
      <stop offset="0.66" stop-color="#8798ad"/>
      <stop offset="0.82" stop-color="#e8edf4"/>
      <stop offset="1" stop-color="#a4afbf"/>
    </linearGradient>
    <linearGradient id="thumb" x1="0" x2="1" y1="0" y2="0">
      <stop offset="0" stop-color="#cfd7e3"/>
      <stop offset="0.5" stop-color="#eef2f7"/>
      <stop offset="1" stop-color="#aeb9c9"/>
    </linearGradient>
    <style>
      .bg { fill: #eef2f7; }
      .shell { fill: #f8fafc; stroke: none; }
      .top { fill: #fbfcfe; }
      .panel { fill: #f4f6fa; stroke: none; }
      .inspector { fill: #f7f8fb; stroke: none; }
      .soft { fill: #ffffff; stroke: none; }
      .canvas { fill: #fbfcfd; stroke: none; }
      .text { fill: #1f2937; font-family: Inter, -apple-system, BlinkMacSystemFont, "Segoe UI", sans-serif; }
      .muted { fill: #667085; font-family: Inter, -apple-system, BlinkMacSystemFont, "Segoe UI", sans-serif; }
      .dim { fill: #98a2b3; font-family: Inter, -apple-system, BlinkMacSystemFont, "Segoe UI", sans-serif; }
      .tiny { font-size: 12px; }
      .small { font-size: 14px; }
      .body { font-size: 16px; }
      .label { font-size: 12px; font-weight: 700; letter-spacing: 0; }
      .title { font-size: 20px; font-weight: 700; letter-spacing: 0; }
      .button { fill: #f3f5f8; stroke: none; }
      .sidebarAction { fill: #e9edf3; stroke: none; }
      .primary { fill: #3d6fb6; stroke: none; }
      .toolbarItem { fill: #f2f4f7; stroke: none; }
      .symbol { stroke: #475467; stroke-width: 1.7; fill: none; stroke-linecap: round; stroke-linejoin: round; }
      .symbolWhite { stroke: #ffffff; stroke-width: 1.8; fill: none; stroke-linecap: round; stroke-linejoin: round; }
      .symbolFill { fill: #475467; }
      .brand { fill: #7f93b6; }
      .green { fill: #2f9e62; }
      .amber { fill: #d89b18; }
      .red { fill: #d94a42; }
      .blue { fill: #3d8bfd; }
      .crop { stroke: #3d8bfd; stroke-width: 2; fill: #3d8bfd; fill-opacity: 0.08; }
      .outer { stroke: #22a06b; stroke-width: 2; fill: none; }
      .split { stroke: #e85d5d; stroke-width: 2; }
      .grid { stroke: #8b6fd6; stroke-width: 1.5; stroke-dasharray: 6 6; opacity: 0.65; }
      .guide { stroke: #d89b18; stroke-width: 1.5; stroke-dasharray: 5 5; opacity: 0.72; }
    </style>
  </defs>

  <rect width="1440" height="900" class="bg"/>
  <rect x="28" y="24" width="1384" height="852" rx="18" class="shell" filter="url(#shadow)"/>

  <rect x="28" y="24" width="1384" height="66" rx="18" class="top"/>

  <g transform="translate(48 52)">
    <circle cx="0" cy="0" r="6.5" fill="#ff5f57"/>
    <circle cx="22" cy="0" r="6.5" fill="#ffbd2e"/>
    <circle cx="44" cy="0" r="6.5" fill="#28c840"/>
  </g>

  <rect x="122" y="39" width="34" height="34" rx="8" class="toolbarItem"/>
  <path d="M132 48h14M132 56h14M132 64h14M148 47v18" class="symbol"/>
  <text x="186" y="62" class="text title">X5 Crop</text>

  <rect x="585" y="39" width="270" height="34" rx="9" fill="#eceff4"/>
  <rect x="676" y="41" width="88" height="30" rx="7" fill="#ffffff" filter="url(#controlShadow)"/>
  <text x="630" y="62" class="muted small" text-anchor="middle">Library</text>
  <text x="720" y="62" class="text small" text-anchor="middle">Review</text>
  <text x="810" y="62" class="muted small" text-anchor="middle">Export</text>

  <g transform="translate(928 39)">
    <rect x="0" y="0" width="34" height="34" rx="8" class="toolbarItem"/>
    <path d="M20 10l-8 7 8 7" class="symbol"/>
  </g>
  <g transform="translate(970 39)">
    <rect x="0" y="0" width="34" height="34" rx="8" class="toolbarItem"/>
    <path d="M14 10l8 7-8 7" class="symbol"/>
  </g>
  <g transform="translate(1030 39)">
    <rect x="0" y="0" width="92" height="34" rx="8" class="toolbarItem"/>
    <circle cx="18" cy="16" r="6" class="symbol"/>
    <path d="M22.5 20.5l5 5M13 16h10M16 13v6" class="symbol"/>
    <text x="58" y="22" class="text small" text-anchor="middle">Analyze</text>
  </g>
  <g transform="translate(1134 39)">
    <rect x="0" y="0" width="96" height="34" rx="8" class="primary"/>
    <circle cx="20" cy="17" r="8" class="symbolWhite"/>
    <path d="M16.5 17.5l3 3 5.5-6" class="symbolWhite"/>
    <text x="62" y="22" fill="#ffffff" font-family="Inter, -apple-system, BlinkMacSystemFont, Segoe UI, sans-serif" font-size="14" text-anchor="middle">Approve</text>
  </g>
  <g transform="translate(1242 39)">
    <rect x="0" y="0" width="34" height="34" rx="8" class="toolbarItem"/>
    <path d="M10 11h14M12 17h10M10 23h14M17 8v26" class="symbol"/>
  </g>
  <g transform="translate(1286 39)">
    <rect x="0" y="0" width="34" height="34" rx="8" class="toolbarItem"/>
    <path d="M10 10h14v14H10zM18 10v14M21 14h1.5M21 18h1.5M21 22h1.5" class="symbol"/>
  </g>
  <g transform="translate(1330 39)">
    <rect x="0" y="0" width="48" height="34" rx="8" class="toolbarItem"/>
    <path d="M24 9v13M18.5 16.5l5.5 5.5 5.5-5.5M14 25h20" class="symbol"/>
  </g>

  <rect x="28" y="90" width="264" height="714" class="panel"/>
  <text x="52" y="128" class="dim label">SOURCE</text>
  <rect x="52" y="146" width="216" height="38" rx="9" class="soft"/>
  <text x="72" y="170" class="text small">/Photography/X5 Test</text>
  <rect x="52" y="196" width="102" height="34" rx="8" class="sidebarAction" filter="url(#controlShadow)"/>
  <path d="M68 205h13l5 5v13H68zM81 205v6h6M72 216h10M77 211v10" class="symbol"/>
  <text x="113" y="218" class="text small" text-anchor="middle">File</text>
  <rect x="166" y="196" width="102" height="34" rx="8" class="sidebarAction" filter="url(#controlShadow)"/>
  <path d="M184 208h12l3 4h13v15h-28zM184 212h28" class="symbol"/>
  <text x="226" y="218" class="text small" text-anchor="middle">Folder</text>

  <text x="52" y="274" class="dim label">BATCH</text>
  <rect x="52" y="294" width="216" height="36" rx="8" fill="#edf3fb"/>
  <text x="72" y="317" class="text small">All scans</text>
  <text x="238" y="317" class="muted small" text-anchor="end">24</text>
  <rect x="52" y="338" width="216" height="36" rx="8" fill="#ffffff"/>
  <circle cx="72" cy="356" r="5" class="amber"/>
  <text x="88" y="361" class="text small">Needs review</text>
  <text x="238" y="361" class="muted small" text-anchor="end">5</text>
  <rect x="52" y="382" width="216" height="36" rx="8" fill="#ffffff"/>
  <circle cx="72" cy="400" r="5" class="green"/>
  <text x="88" y="405" class="text small">Approved</text>
  <text x="238" y="405" class="muted small" text-anchor="end">18</text>
  <rect x="52" y="426" width="216" height="36" rx="8" fill="#ffffff"/>
  <circle cx="72" cy="444" r="5" class="red"/>
  <text x="88" y="449" class="text small">Failed</text>
  <text x="238" y="449" class="muted small" text-anchor="end">1</text>

  <text x="52" y="520" class="dim label">QUEUE</text>
  <rect x="44" y="538" width="232" height="56" rx="10" fill="#edf3fb"/>
  <rect x="44" y="538" width="4" height="56" rx="2" fill="#3d8bfd"/>
  <rect x="60" y="552" width="48" height="28" rx="4" fill="url(#thumb)"/>
  <text x="122" y="560" class="text small">X5 022.tif</text>
  <text x="122" y="580" class="muted tiny">56% · weak gap 3</text>
  <rect x="232" y="552" width="36" height="20" rx="10" fill="#fff4d8"/>
  <text x="250" y="566" class="amber tiny" text-anchor="middle">5</text>
  <rect x="44" y="608" width="232" height="56" rx="10" fill="#ffffff"/>
  <rect x="60" y="622" width="48" height="28" rx="4" fill="url(#thumb)"/>
  <text x="122" y="630" class="text small">X5 023.tif</text>
  <text x="122" y="650" class="muted tiny">92% · approved</text>
  <circle cx="250" cy="636" r="8" class="green"/>
  <rect x="44" y="678" width="232" height="56" rx="10" fill="#ffffff"/>
  <rect x="60" y="692" width="48" height="28" rx="4" fill="url(#thumb)"/>
  <text x="122" y="700" class="text small">X5 024.tif</text>
  <text x="122" y="720" class="muted tiny">exported</text>
  <circle cx="250" cy="706" r="8" class="blue"/>

  <rect x="292" y="90" width="808" height="714" class="canvas"/>
  <rect x="316" y="114" width="760" height="48" rx="10" class="soft"/>
  <text x="338" y="144" class="text body">X5 022.tif</text>
  <text x="985" y="144" class="muted small" text-anchor="end">Fit   100%   Pan   Crop   Grid   Analysis</text>

  <rect x="342" y="260" width="686" height="286" rx="12" fill="#ffffff" filter="url(#cardShadow)"/>
  <rect x="364" y="284" width="642" height="238" rx="8" fill="url(#scan)"/>
  <rect x="386" y="306" width="598" height="194" class="outer"/>
  <line x1="484" y1="306" x2="484" y2="500" class="split"/>
  <line x1="584" y1="306" x2="584" y2="500" class="split"/>
  <line x1="684" y1="306" x2="684" y2="500" class="split"/>
  <line x1="784" y1="306" x2="784" y2="500" class="split"/>
  <line x1="884" y1="306" x2="884" y2="500" class="split"/>
  <line x1="434" y1="306" x2="434" y2="500" class="grid"/>
  <line x1="534" y1="306" x2="534" y2="500" class="grid"/>
  <line x1="634" y1="306" x2="634" y2="500" class="grid"/>
  <line x1="734" y1="306" x2="734" y2="500" class="grid"/>
  <line x1="834" y1="306" x2="834" y2="500" class="grid"/>
  <line x1="386" y1="328" x2="984" y2="318" class="guide"/>
  <line x1="386" y1="480" x2="984" y2="492" class="guide"/>
  <rect x="392" y="314" width="92" height="186" class="crop"/>
  <rect x="492" y="314" width="92" height="186" class="crop"/>
  <rect x="592" y="314" width="92" height="186" class="crop"/>
  <rect x="692" y="314" width="92" height="186" class="crop"/>
  <rect x="792" y="314" width="92" height="186" class="crop"/>
  <rect x="892" y="314" width="92" height="186" class="crop"/>
  <text x="438" y="422" class="text title" text-anchor="middle" opacity="0.72">1</text>
  <text x="538" y="422" class="text title" text-anchor="middle" opacity="0.72">2</text>
  <text x="638" y="422" class="text title" text-anchor="middle" opacity="0.72">3</text>
  <text x="738" y="422" class="text title" text-anchor="middle" opacity="0.72">4</text>
  <text x="838" y="422" class="text title" text-anchor="middle" opacity="0.72">5</text>
  <text x="938" y="422" class="text title" text-anchor="middle" opacity="0.72">6</text>

  <rect x="388" y="596" width="630" height="92" rx="12" fill="#ffffff" filter="url(#cardShadow)"/>
  <text x="412" y="628" class="dim label">REVIEW NOTE</text>
  <text x="412" y="654" class="muted small">Confidence: 56%. Weak separator around frame 3.</text>
  <text x="412" y="676" class="muted small">Drag the red line, or approve if the crop looks right.</text>

  <rect x="1100" y="90" width="312" height="714" class="inspector"/>
  <text x="1124" y="128" class="text body">Inspector</text>
  <rect x="1124" y="146" width="264" height="34" rx="8" fill="#eceff4"/>
  <rect x="1127" y="149" width="62" height="28" rx="6" fill="#ffffff" filter="url(#controlShadow)"/>
  <text x="1158" y="168" class="text tiny" text-anchor="middle">Plan</text>
  <text x="1222" y="168" class="muted tiny" text-anchor="middle">Adjust</text>
  <text x="1286" y="168" class="muted tiny" text-anchor="middle">Analyze</text>
  <text x="1350" y="168" class="muted tiny" text-anchor="middle">Export</text>

  <text x="1124" y="230" class="dim label">STATUS</text>
  <rect x="1124" y="246" width="132" height="30" rx="15" fill="#fff4d8"/>
  <text x="1190" y="266" class="amber small" text-anchor="middle">Needs review</text>

  <text x="1124" y="318" class="dim label">CONFIDENCE</text>
  <text x="1370" y="318" class="text small" text-anchor="end">56%</text>
  <rect x="1124" y="338" width="264" height="9" rx="4.5" fill="#e3e8f0"/>
  <rect x="1124" y="338" width="148" height="9" rx="4.5" fill="#d89b18"/>

  <text x="1124" y="392" class="dim label">WARNINGS</text>
  <rect x="1124" y="410" width="264" height="46" rx="10" fill="#fff4dc"/>
  <text x="1142" y="438" class="text small">Weak separator near frame 3</text>
  <rect x="1124" y="466" width="264" height="46" rx="10" fill="#fff4dc"/>
  <text x="1142" y="494" class="text small">Frame width variance is high</text>

  <text x="1124" y="558" class="dim label">CROP PLAN</text>
  <text x="1124" y="588" class="text small">Frame count</text>
  <text x="1370" y="588" class="muted small" text-anchor="end">6</text>
  <text x="1124" y="622" class="text small">Bleed</text>
  <text x="1370" y="622" class="muted small" text-anchor="end">10 px</text>
  <text x="1124" y="656" class="text small">Deskew</text>
  <text x="1370" y="656" class="muted small" text-anchor="end">-0.18 deg</text>

  <rect x="1124" y="708" width="124" height="36" rx="9" class="button"/>
  <text x="1186" y="731" class="text small" text-anchor="middle">Reset</text>
  <rect x="1260" y="708" width="128" height="36" rx="9" class="primary"/>
  <text x="1324" y="731" fill="#ffffff" font-family="Inter, -apple-system, BlinkMacSystemFont, Segoe UI, sans-serif" font-size="14" text-anchor="middle">Approve</text>

  <rect x="292" y="724" width="808" height="80" fill="#f1f4f8"/>
  <rect x="316" y="736" width="70" height="48" rx="9" fill="#ffffff" opacity="0.72"/>
  <text x="351" y="764" class="muted small" text-anchor="middle">Filmstrip</text>
  <g transform="translate(406 736)">
    <rect x="0" y="0" width="92" height="48" rx="8" fill="url(#thumb)"/>
    <rect x="0" y="45" width="92" height="3" rx="1.5" fill="#3d8bfd"/>
    <circle cx="78" cy="12" r="7" fill="#d89b18"/>
    <text x="78" y="16" fill="#ffffff" font-family="Inter, -apple-system, BlinkMacSystemFont, Segoe UI, sans-serif" font-size="10" text-anchor="middle">!</text>
  </g>
  <g transform="translate(512 736)"><rect x="0" y="0" width="92" height="48" rx="8" fill="url(#thumb)"/><circle cx="78" cy="12" r="7" class="green"/></g>
  <g transform="translate(618 736)"><rect x="0" y="0" width="92" height="48" rx="8" fill="url(#thumb)"/><circle cx="78" cy="12" r="7" class="blue"/></g>
  <g transform="translate(724 736)"><rect x="0" y="0" width="92" height="48" rx="8" fill="url(#thumb)"/><circle cx="78" cy="12" r="7" class="green"/></g>
  <g transform="translate(830 736)"><rect x="0" y="0" width="92" height="48" rx="8" fill="url(#thumb)"/><circle cx="78" cy="12" r="7" fill="#d89b18"/><text x="78" y="16" fill="#ffffff" font-family="Inter, -apple-system, BlinkMacSystemFont, Segoe UI, sans-serif" font-size="10" text-anchor="middle">!</text></g>
  <g transform="translate(936 736)"><rect x="0" y="0" width="92" height="48" rx="8" fill="url(#thumb)"/><circle cx="78" cy="12" r="7" class="green"/></g>
  <text x="1072" y="767" class="muted tiny" text-anchor="end">18 approved · 5 review · 1 failed</text>
</svg>
